<?xml version="1.0" encoding="utf-8"?>
<!-- Generator: Adobe Illustrator 28.0.0, SVG Export Plug-In . SVG Version: 6.00 Build 0)  -->
<svg version="1.1" id="Lager_1" xmlns="http://www.w3.org/2000/svg" xmlns:xlink="http://www.w3.org/1999/xlink" x="0px" y="0px"
	 viewBox="0 0 250 250" style="enable-background:new 0 0 250 250;" xml:space="preserve">
<style type="text/css">
	.st0{fill:#8A2023;}
</style>
<g>
	<path class="st0" d="M125.1,229.5c-57.3,0-103.9-46.6-103.9-103.9S67.8,21.6,125.1,21.6S229,68.3,229,125.6
		S182.4,229.5,125.1,229.5z M125.1,31.6c-51.8,0-93.9,42.1-93.9,93.9s42.1,93.9,93.9,93.9c51.8,0,93.9-42.1,93.9-93.9
		S176.9,31.6,125.1,31.6z"/>
</g>
<g>
	<rect x="120.1" y="130.6" class="st0" width="10" height="31.5"/>
	<rect x="120.1" y="89.1" class="st0" width="10" height="31.5"/>
	<polygon class="st0" points="161.6,120.6 130.1,120.6 120.1,120.6 88.6,120.6 88.6,130.6 120.1,130.6 130.1,130.6 161.6,130.6 	"/>
</g>
</svg>
