<?xml version="1.0" encoding="utf-8"?>
<!-- Generator: Adobe Illustrator 28.0.0, SVG Export Plug-In . SVG Version: 6.00 Build 0)  -->
<svg version="1.1" id="Lager_1" xmlns="http://www.w3.org/2000/svg" xmlns:xlink="http://www.w3.org/1999/xlink" x="0px" y="0px"
	 viewBox="0 0 250 250" style="enable-background:new 0 0 250 250;" xml:space="preserve">
<style type="text/css">
	.st0{fill:#8A2023;}
</style>
<path class="st0" d="M125,35.1c-1.7,0-3,1.3-3.1,3c0,1.7,1.3,3,3,3.1h0.1h13.9l5.3,5.3c-6.3,3.8-11.5,8.6-16.1,13.5v-0.6h-23.2
	c-4.4-5.5-10.9-9.1-18-9.1H68.9c-0.8,0-1.6,0.3-2.1,0.9C57.9,60.1,52.9,68,52.9,68c-0.9,1.4-0.5,3.3,0.9,4.2
	c0.2,0.1,0.5,0.2,0.7,0.3l31,9.9L56.7,97.8c-3.8,2-5.2,6.3-4.3,9.7s4.1,6.5,8.4,6.6h35.4c8.6,0,17.1-3.3,23.2-9.4l0,0
	c2.4-2.4,5.1-5.3,8-8.9c0.2,0.1,0.4,0.1,0.5,0.1h22.8l12.3,12.1h-19.8c-1.7,0-3,1.3-3.1,3c0,1.7,1.3,3,3,3.1h0.1h26.6
	c0.5,0.1,1,0.1,1.5,0h5.3c7.3,0,14.3-2.3,20.1-6.7c1.3-1,1.6-2.9,0.5-4.2c-1-1.3-2.9-1.6-4.2-0.5c-4.7,3.6-10.4,5.5-16.4,5.4h-4.9
	l-12.3-12.1h3c9.7,0,18.8-4.2,25.1-11.4l9.5-10.9c1.1-1.3,1-3.2-0.3-4.3c-0.1-0.1-0.2-0.2-0.3-0.2c0,0-15.1-10-33.5-12.4l-11.5-11.5
	l-9.1-9.1c-0.5-0.5-1.3-0.9-2.1-0.9L125,35.1L125,35.1z M148.9,51.2l10.4,10.4c0.5,0.6,1.4,0.9,2.2,0.9c14.1,1.6,24.8,7.7,28.5,10
	l-7,8c-5.2,5.9-12.7,9.3-20.6,9.3h-33.9l-11.7-3.8C118.2,83,128.7,62.4,148.9,51.2z M70.3,56.4h16.4c5.8,0,11.2,2.9,14.5,7.8
	c0.5,0.8,1.5,1.3,2.5,1.3h19.5c-7.8,9.7-11.8,17.4-12.3,18.6L60.4,68C62.3,65.4,65.4,61.5,70.3,56.4z M93.6,85l27.6,8.8
	c-2.1,2.5-4.2,4.8-6,6.6c-5,4.9-11.9,7.6-19,7.6H60.8c-1.6,0-2.2-0.8-2.5-1.9c-0.3-1.1-0.1-2.1,1.3-2.9L93.6,85z"/>
<path class="st0" d="M207.1,152.5c-4.3,0.9-9,1-12.7,3c-8.3,4.6-16.9,9.2-24,15.4c-16.9,15-36.7,13.7-56.7,12.1
	c-4.2-0.3-8.5-1.1-12.5-2.6c-2.6-1-4.7-3.5-7-5.3c2.8-0.8,5.6-2.4,8.3-2.3c12.7,0.7,25.4,2.4,38.1,2.6c4,0.1,8-3.5,12.1-5.3
	c-3.9-2.1-7.6-5.6-11.6-6c-14.6-1.3-28-3.3-39.5-14.5c-8.6-8.4-20.8-6.8-31.7-2.8c-8.9,3.3-17.4,7.8-26.3,11.1
	c-2.4,0.9-5.6-0.3-8.4-0.6c1.6-2.1,2.8-5.1,4.9-6.1c10.8-4.8,21.5-10.1,32.7-13.3c14.4-4.1,28-1.5,39.1,9.5
	c6.8,6.8,14.1,8.9,22.6,2.4c4.9-3.8,10.2-8,15.9-9.6c6.8-1.9,14.4-2,21.5-1.3c10.3,1.1,20.5,3.2,30.6,5.7c4.3,1.1,9.7,3.4,11.7,6.9
	c1.7,2.9-0.1,8.6-1.8,12.4c-1.2,2.7-4.5,4.7-7.2,6.5c-19.8,12.9-39.8,25.6-59.4,38.6c-11,7.3-22,7.5-33.4,1.6
	c-8.1-4.2-16.6-7.9-24.5-12.6c-8.5-5.1-16.1-6.4-24.3,0.6c-1.9,1.6-5.7,1.1-8.6,1.6c1.6-2.7,2.5-6.1,4.8-8.1
	c9.2-8.1,19-8.5,29.8-2.1c9,5.4,18.6,9.6,28,14.4c7.6,3.9,15,3.8,22.3-1c20.3-13.3,40.8-26.4,61.2-39.5c3-1.9,6.2-3.7,9.3-5.5
	C209.2,156.5,208.2,154.5,207.1,152.5z M186.3,150.7c-0.8-1.4-1.6-2.9-2.4-4.3c-8.3,5.1-16.6,10.2-24.7,15.5c-0.2,0.2,1.3,3,2.3,5.2
	C170.2,161.3,178.2,156,186.3,150.7z M142.4,153.1c0.5,1.6,1.1,3.2,1.6,4.8c7.6-3.4,15.2-6.9,22.8-10.3c-0.6-1.5-1.3-2.9-1.9-4.4
	C157.4,146.5,149.9,149.8,142.4,153.1z"/>
</svg>
