<?xml version="1.0" encoding="utf-8"?>
<!-- Generator: Adobe Illustrator 28.0.0, SVG Export Plug-In . SVG Version: 6.00 Build 0)  -->
<svg version="1.1" id="Lager_1" xmlns="http://www.w3.org/2000/svg" xmlns:xlink="http://www.w3.org/1999/xlink" x="0px" y="0px"
	 viewBox="0 0 250 250" style="enable-background:new 0 0 250 250;" xml:space="preserve">
<style type="text/css">
	.st0{fill:#8A2023;}
</style>
<g>
	<path class="st0" d="M124.2,224.4c-29.1,0-58.2-0.3-87.3,0.2c-8.5,0.1-12.1-1.9-12-11.3c0.5-42.6,0.3-85.3,0.1-127.9
		c0-6.7,2.5-10.1,8.2-13C61.8,57.6,90,42.4,118.6,28c3.6-1.8,9.7-1.7,13.3,0.1c28.6,14.5,56.8,29.7,85.4,44.3
		c5.9,3,7.8,6.9,7.7,13.3c-0.3,42.6-0.3,85.3,0,127.9c0.1,8.6-3.1,11-11.3,10.8C183.9,224.1,154.1,224.4,124.2,224.4z M183.4,214.8
		c0-36.6,0-72,0-107.6c-39.3,0-77.9,0-116.6,0c0,36.3,0,71.9,0,107.6C106,214.8,144.4,214.8,183.4,214.8z M215.8,214.8
		c0-43.2,0.2-85.1-0.3-127c0-3.3-3.9-7.7-7.2-9.5C183.4,64.8,158.4,51.6,133,39c-4.2-2.1-11.1-2.2-15.3-0.2
		C92.4,51.3,67.5,64.9,42.2,77.6c-6.3,3.2-8.2,7.1-8.1,14c0.4,37.8,0.2,75.5,0.2,113.3c0,3.3,0.4,6.5,0.6,9.4c7.8,0,14.8,0,22.1,0
		c0-35.6,0.3-70.4-0.2-105.1c-0.1-9.6,3.1-12.2,12.4-12.1c37,0.4,74.1,0.6,111.1-0.1c11-0.2,13.2,3.8,13.1,13.7
		c-0.5,31-0.2,61.9-0.2,92.9c0,3.6,0.3,7.3,0.5,11C201.3,214.8,207.9,214.8,215.8,214.8z"/>
</g>
</svg>
